HIERARCHY
ROOT hip
{
  OFFSET 0 0 0
  CHANNELS 6 Xposition Yposition Zposition Zrotation Yrotation Xrotation
  JOINT abdomen
  {
    OFFSET 0 20.6881 -0.73152
    CHANNELS 3 Zrotation Xrotation Yrotation
    JOINT chest
    {
      OFFSET 0 11.7043 -0.48768
      CHANNELS 3 Zrotation Xrotation Yrotation
      JOINT neck
      {
        OFFSET 0 22.1894 -2.19456
        CHANNELS 3 Zrotation Xrotation Yrotation
        JOINT head
        {
          OFFSET -0.24384 7.07133 1.2192
          CHANNELS 3 Zrotation Xrotation Yrotation
          JOINT leftEye
          {
            OFFSET 4.14528 8.04674 8.04672
            CHANNELS 3 Zrotation Xrotation Yrotation
            End Site
            {
              OFFSET 1 0 0
            }
          }
          JOINT rightEye
          {
            OFFSET -3.6576 8.04674 8.04672
            CHANNELS 3 Zrotation Xrotation Yrotation
            End Site
            {
              OFFSET 1 0 0
            }
          }
        }
      }
      JOINT rCollar
      {
        OFFSET -2.68224 19.2634 -4.8768
        CHANNELS 3 Zrotation Xrotation Yrotation
        JOINT rShldr
        {
          OFFSET -8.77824 -1.95073 1.46304
          CHANNELS 3 Zrotation Xrotation Yrotation
          JOINT rForeArm
          {
            OFFSET -28.1742 -1.7115 0.48768
            CHANNELS 3 Zrotation Xrotation Yrotation
            JOINT rHand
            {
              OFFSET -22.5879 0.773209 7.07136
              CHANNELS 3 Zrotation Xrotation Yrotation
              JOINT rThumb1
              {
                OFFSET -1.2192 -0.487915 3.41376
                CHANNELS 3 Zrotation Xrotation Yrotation
                JOINT rThumb2
                {
                  OFFSET -3.37035 -0.52449 3.41376
                  CHANNELS 3 Zrotation Xrotation Yrotation
                  End Site
                  {
                    OFFSET -1.78271 -1.18214 1.43049
                  }
                }
              }
              JOINT rIndex1
              {
                OFFSET -7.75947 0.938293 5.60832
                CHANNELS 3 Zrotation Xrotation Yrotation
                JOINT rIndex2
                {
                  OFFSET -2.54057 -0.884171 1.56538
                  CHANNELS 3 Zrotation Xrotation Yrotation
                  End Site
                  {
                    OFFSET -1.62519 -0.234802 1.16502
                  }
                }
              }
              JOINT rMid1
              {
                OFFSET -8.24714 1.18213 3.41376
                CHANNELS 3 Zrotation Xrotation Yrotation
                JOINT rMid2
                {
                  OFFSET -3.10165 -0.590103 1.0647
                  CHANNELS 3 Zrotation Xrotation Yrotation
                  End Site
                  {
                    OFFSET -2.48547 -0.328903 0.83742
                  }
                }
              }
              JOINT rRing1
              {
                OFFSET -8.82822 0.546677 1.51678
                CHANNELS 3 Zrotation Xrotation Yrotation
                JOINT rRing2
                {
                  OFFSET -2.60934 -0.819778 -0.0198488
                  CHANNELS 3 Zrotation Xrotation Yrotation
                  End Site
                  {
                    OFFSET -2.33842 -0.294052 0.168128
                  }
                }
              }
              JOINT rPinky1
              {
                OFFSET -8.27202 -0.0477905 -0.4584
                CHANNELS 3 Zrotation Xrotation Yrotation
                JOINT rPinky2
                {
                  OFFSET -1.82734 -0.647385 -0.700984
                  CHANNELS 3 Zrotation Xrotation Yrotation
                  End Site
                  {
                    OFFSET -1.69225 -0.51767 -0.607171
                  }
                }
              }
            }
          }
        }
      }
      JOINT lCollar
      {
        OFFSET 2.68224 19.2634 -4.8768
        CHANNELS 3 Zrotation Xrotation Yrotation
        JOINT lShldr
        {
          OFFSET 8.77824 -1.95073 1.46304
          CHANNELS 3 Zrotation Xrotation Yrotation
          JOINT lForeArm
          {
            OFFSET 28.1742 -1.7115 0.48768
            CHANNELS 3 Zrotation Xrotation Yrotation
            JOINT lHand
            {
              OFFSET 22.5879 0.773209 7.07136
              CHANNELS 3 Zrotation Xrotation Yrotation
              JOINT lThumb1
              {
                OFFSET 1.2192 -0.487915 3.41376
                CHANNELS 3 Zrotation Xrotation Yrotation
                JOINT lThumb2
                {
                  OFFSET 3.37035 -0.52449 3.41376
                  CHANNELS 3 Zrotation Xrotation Yrotation
                  End Site
                  {
                    OFFSET 1.78271 -1.18214 1.43049
                  }
                }
              }
              JOINT lIndex1
              {
                OFFSET 7.75947 0.938293 5.60832
                CHANNELS 3 Zrotation Xrotation Yrotation
                JOINT lIndex2
                {
                  OFFSET 2.54057 -0.884171 1.56538
                  CHANNELS 3 Zrotation Xrotation Yrotation
                  End Site
                  {
                    OFFSET 1.62519 -0.234802 1.16502
                  }
                }
              }
              JOINT lMid1
              {
                OFFSET 8.24714 1.18213 3.41376
                CHANNELS 3 Zrotation Xrotation Yrotation
                JOINT lMid2
                {
                  OFFSET 3.10165 -0.590103 1.0647
                  CHANNELS 3 Zrotation Xrotation Yrotation
                  End Site
                  {
                    OFFSET 2.48547 -0.328903 0.83742
                  }
                }
              }
              JOINT lRing1
              {
                OFFSET 8.82822 0.546677 1.51678
                CHANNELS 3 Zrotation Xrotation Yrotation
                JOINT lRing2
                {
                  OFFSET 2.60934 -0.819778 -0.0198488
                  CHANNELS 3 Zrotation Xrotation Yrotation
                  End Site
                  {
                    OFFSET 2.33842 -0.294052 0.168128
                  }
                }
              }
              JOINT lPinky1
              {
                OFFSET 8.27202 -0.0477905 -0.4584
                CHANNELS 3 Zrotation Xrotation Yrotation
                JOINT lPinky2
                {
                  OFFSET 1.82734 -0.647385 -0.700984
                  CHANNELS 3 Zrotation Xrotation Yrotation
                  End Site
                  {
                    OFFSET 1.69225 -0.51767 -0.607171
                  }
                }
              }
            }
          }
        }
      }
    }
  }
  JOINT rButtock
  {
    OFFSET -8.77824 4.35084 1.2192
    CHANNELS 3 Zrotation Xrotation Yrotation
    JOINT rThigh
    {
      OFFSET 0 -1.70687 -2.19456
      CHANNELS 3 Zrotation Xrotation Yrotation
      JOINT rShin
      {
        OFFSET 0 -36.8199 0.73152
        CHANNELS 3 Zrotation Xrotation Yrotation
        JOINT rFoot
        {
          OFFSET 0.73152 -45.1104 -5.12064
          CHANNELS 3 Zrotation Xrotation Yrotation
          End Site
          {
            OFFSET -1.1221 -3.69964 12.103
          }
        }
      }
    }
  }
  JOINT lButtock
  {
    OFFSET 8.77824 4.35084 1.2192
    CHANNELS 3 Zrotation Xrotation Yrotation
    JOINT lThigh
    {
      OFFSET 0 -1.70687 -2.19456
      CHANNELS 3 Zrotation Xrotation Yrotation
      JOINT lShin
      {
        OFFSET 0 -36.8199 0.73152
        CHANNELS 3 Zrotation Xrotation Yrotation
        JOINT lFoot
        {
          OFFSET -0.73152 -45.1104 -5.12064
          CHANNELS 3 Zrotation Xrotation Yrotation
          End Site
          {
            OFFSET 1.1221 -3.69964 12.103
          }
        }
      }
    }
  }
}
MOTION
Frames:	4
Frame Time:	0.03333
2.3362429373528295 57.98920080818953 -63.71349985653241 2.538499593734741 0.6309000253677368 10.54319953918457 -1.2457799911499023 15.419197082519531 -8.191570281982422 5.682179927825928 -7.81790828704834 -1.8736604452133179 -2.3333899974823 12.601299285888672 1.6148898601531982 -0.6961760520935059 -32.63620376586914 3.2041099071502686 -0.0 0.0 -0.0 -0.0 0.0 -0.0 -4.064859953083373e-14 3.007290055000167e-13 -1.0222599405428773e-13 91.52269744873047 53.002105712890625 -30.281898498535156 -28.252899169921875 -38.39429473876953 81.25609588623047 -16.81479835510254 -70.68849182128906 -23.57369613647461 4.793499375210786e-09 -1.1677399491816232e-08 -7.729909490272746e-10 8.26416002297492e-09 -1.9854999422364017e-08 -1.0606400202561872e-09 4.793499375210786e-09 -1.1677399491816232e-08 -7.730159845564799e-10 7.730909824371338 5.474879741668701 0.4173140823841095 4.793490049337379e-09 -1.1677399491816232e-08 -7.729969442316076e-10 2.9055399894714355 0.9651829600334167 0.10290199518203735 4.793499375210786e-09 -1.1677399491816232e-08 -7.72992003739148e-10 10.27859878540039 0.73180091381073 0.025912316516041756 4.793490049337379e-09 -1.1677399491816232e-08 -7.729899498265524e-10 2.221669912338257 -0.733487069606781 -0.208919957280159 -4.0587599606104266e-14 3.00743967489997e-13 -1.0237799242260662e-13 -40.08089828491211 -9.3229398727417 -74.04199981689453 12.93809986114502 -6.129809856414795 -23.438899993896484 0.39008498191833496 17.48160171508789 -2.5368902683258057 4.724709956605011e-09 -6.210679970308775e-08 9.567759917672447e-10 8.176939125803528e-09 -1.0686099471968191e-07 1.5812999798470173e-09 4.724700186642394e-09 -6.210679970308775e-08 9.567819869715777e-10 -7.730909824371338 5.474879741668701 -0.4173140823841095 4.724709956605011e-09 -6.210689917907075e-08 9.567771019902693e-10 -2.9055399894714355 0.9651829600334167 -0.10290199518203735 4.724700186642394e-09 -6.210679970308775e-08 9.567709957636339e-10 -10.27859878540039 0.73180091381073 -0.025912316516041756 4.724719726567628e-09 -6.210679970308775e-08 9.567640013585788e-10 -2.221669912338257 -0.733487069606781 0.208919957280159 -2.0321699480147914e-16 0.0 -3.8825099822884138e-19 -32.41259765625 -55.971004486083984 -43.27280044555664 -3.2057299613952637 75.7282943725586 3.7661499977111816 -8.812870025634766 -11.96989917755127 -22.496702194213867 2.0321699480147914e-16 0.0 3.8825099822884138e-19 8.779101371765137 -21.43180274963379 21.593700408935547 41.954193115234375 88.72527313232422 -44.116493225097656 4.779350280761719 -13.32480239868164 20.628799438476562
2.7681189468630563 57.801097398447375 -65.99149985276 3.233099937438965 2.2818000316619873 11.11669921875 -1.8146198987960815 14.106000900268555 -9.335309982299805 6.324819564819336 -7.717070579528809 -2.1344096660614014 -2.2816901206970215 12.359600067138672 1.3470600843429565 -0.8929339647293091 -32.173194885253906 2.613029956817627 -0.0 0.0 -0.0 -0.0 0.0 -0.0 -4.773300014255209e-15 3.2261200004837787e-13 -6.795329950863918e-14 89.8821029663086 52.590309143066406 -28.318397521972656 -28.04319953918457 -40.48879623413086 84.57360076904297 -13.127199172973633 -67.25531005859375 -19.615201950073242 4.8407500230496225e-09 -1.2001000193606615e-08 -8.250059524428366e-10 8.348310487349409e-09 -2.0420598545456414e-08 -1.1461399607171074e-09 4.840759793012239e-09 -1.2001000193606615e-08 -8.250259919684311e-10 7.730909824371338 5.474879741668701 0.4173140823841095 4.8407500230496225e-09 -1.2001000193606615e-08 -8.250130578701942e-10 2.9055399894714355 0.9651829600334167 0.10290199518203735 4.840759793012239e-09 -1.200110055776804e-08 -8.250049532421144e-10 10.27859878540039 0.73180091381073 0.025912316516041756 4.840739808997796e-09 -1.2001000193606615e-08 -8.250009564392258e-10 2.221669912338257 -0.733487069606781 -0.208919957280159 -4.746579512901125e-15 3.226189931523904e-13 -6.813379884156728e-14 -38.399391174316406 -8.050190925598145 -74.4638900756836 12.804099082946777 -6.021349906921387 -23.19300079345703 0.3811900019645691 17.268701553344727 -2.504319906234741 4.597539682293927e-09 -5.92271973687275e-08 7.624539888340109e-10 7.955119230018681e-09 -1.0188099253127803e-07 1.247709935370267e-09 4.597539682293927e-09 -5.92271973687275e-08 7.62459040348773e-10 -7.730909824371338 5.474879741668701 -0.4173140823841095 4.597539682293927e-09 -5.92271973687275e-08 7.62459040348773e-10 -2.9055399894714355 0.9651829600334167 -0.10290199518203735 4.597539682293927e-09 -5.92271973687275e-08 7.624510467429957e-10 -10.27859878540039 0.73180091381073 -0.025912316516041756 4.597549452256544e-09 -5.92271973687275e-08 7.624469944289558e-10 -2.221669912338257 -0.733487069606781 0.208919957280159 -2.0321699480147914e-16 0.0 -3.8825099822884138e-19 -38.26000213623047 -56.750301361083984 -49.4130973815918 -3.335129976272583 75.75761413574219 3.645479202270508 -8.193819999694824 -10.734901428222656 -21.29399871826172 2.0321699480147914e-16 0.0 3.8825099822884138e-19 8.283209800720215 -14.184700965881348 18.790599822998047 6.508119583129883 83.69661712646484 -9.090858459472656 5.338620185852051 -13.63239860534668 23.89289665222168
3.2357399509817513 57.456200166118414 -68.1885998868068 4.252299785614014 4.2108001708984375 11.873499870300293 -3.0645201206207275 12.759299278259277 -10.342500686645508 7.210699558258057 -7.659670829772949 -2.355639696121216 -2.2310001850128174 12.099900245666504 0.9577269554138184 -0.9451239705085754 -31.621700286865234 1.8221598863601685 -0.0 0.0 -0.0 -0.0 0.0 -0.0 6.018819611545295e-14 1.4826300723160685e-13 1.6502199116203396e-14 87.74700164794922 51.76640319824219 -25.716096878051758 -27.275699615478516 -43.31829833984375 89.98169708251953 -12.237397193908691 -66.26470184326172 -18.649097442626953 1.4447298912756423e-09 -3.987119967518993e-09 -2.8803101570495926e-10 2.492840156520515e-09 -6.81928957746436e-09 -4.137649944890853e-10 1.444739883282864e-09 -3.987119967518993e-09 -2.8803298635082797e-10 7.730909824371338 5.474879741668701 0.4173140823841095 1.4447298912756423e-09 -3.987119967518993e-09 -2.880379823544388e-10 2.9055399894714355 0.9651829600334167 0.10290199518203735 1.444739883282864e-09 -3.9871297374816095e-09 -2.880299887486615e-10 10.27859878540039 0.73180091381073 0.025912316516041756 1.4447198992684207e-09 -3.9871297374816095e-09 -2.8802499274505067e-10 2.221669912338257 -0.733487069606781 -0.208919957280159 6.008799550592456e-14 1.4824899391852747e-13 1.6221500867812794e-14 -35.48939895629883 -6.228180885314941 -75.19729614257812 12.971999168395996 -6.1345601081848145 -23.548694610595703 0.34683096408843994 16.433698654174805 -2.3770298957824707 1.0218299539843656e-09 -1.4213599186518877e-08 2.567339951742298e-10 1.7691799136798636e-09 -2.446599900451929e-08 4.2885300866046805e-10 1.0218299539843656e-09 -1.4213599186518877e-08 2.567339951742298e-10 -7.730909824371338 5.474879741668701 -0.4173140823841095 1.0218299539843656e-09 -1.4213599186518877e-08 2.5674298798072925e-10 -2.9055399894714355 0.9651829600334167 -0.10290199518203735 1.021819961977144e-09 -1.4213599186518877e-08 2.567369927763963e-10 -10.27859878540039 0.73180091381073 -0.025912316516041756 1.0218399459915872e-09 -1.4213599186518877e-08 2.567359658200985e-10 -2.221669912338257 -0.733487069606781 0.208919957280159 -2.0321699480147914e-16 0.0 -3.8825099822884138e-19 -44.9927978515625 -57.26029586791992 -55.90679931640625 -3.5411300659179688 76.09070587158203 3.6304399967193604 -7.642740249633789 -9.501541137695312 -20.38300132751465 2.0321699480147914e-16 0.0 3.8825099822884138e-19 8.04585075378418 -7.7878804206848145 15.964000701904297 2.5060603618621826 77.18408966064453 -5.478790283203125 6.217870712280273 -13.983598709106445 27.775596618652344
3.672599944193251 57.03849994742628 -70.28439989116926 5.413599967956543 6.53410005569458 12.832198143005371 -4.3042192459106445 11.363600730895996 -11.243000984191895 7.878051280975342 -7.737389087677002 -2.5565099716186523 -2.317460060119629 11.98539924621582 0.3757130205631256 -0.6860739588737488 -31.197803497314453 0.7337960600852966 -0.0 0.0 -0.0 -0.0 0.0 -0.0 3.020539818699569e-14 -4.8918697190909396e-14 -5.028710263412124e-14 83.74089813232422 50.802303314208984 -20.725297927856445 -26.06410026550293 -46.247398376464844 95.93218994140625 -11.800797462463379 -65.7372055053711 -18.171598434448242 -4.324999802740592e-10 7.962209780387752e-10 3.5139395733463363e-12 -7.428379578122701e-10 1.4840799700266416e-09 -1.738680033280815e-11 -4.324959834711706e-10 7.962189796373309e-10 3.51611968707477e-12 7.730909824371338 5.474879741668701 0.4173140823841095 -4.324999802740592e-10 7.962189796373309e-10 3.51040008693404e-12 2.9055399894714355 0.9651829600334167 0.10290199518203735 -4.324949842704484e-10 7.962179804366087e-10 3.515429917652635e-12 10.27859878540039 0.73180091381073 0.025912316516041756 -4.3251000003685647e-10 7.962159265240132e-10 3.521320171215314e-12 2.221669912338257 -0.733487069606781 -0.208919957280159 3.01324991434232e-14 -4.893310013914451e-14 -5.055189868596009e-14 -32.02949905395508 -3.270110607147217 -75.78279876708984 13.888398170471191 -6.859140396118164 -25.36130142211914 0.4049830138683319 17.993999481201172 -2.6131598949432373 -7.85361997657219e-10 7.112500366446284e-09 1.3027098844098361e-10 -1.3554198874388135e-09 1.2204899313417172e-08 2.3882099076111274e-10 -7.853659944601077e-10 7.112500366446284e-09 1.3027300072021575e-10 -7.730909824371338 5.474879741668701 -0.4173140823841095 -7.853599992557747e-10 7.112500366446284e-09 1.302800090030587e-10 -2.9055399894714355 0.9651829600334167 -0.10290199518203735 -7.853699912629963e-10 7.112500366446284e-09 1.302769975231044e-10 -10.27859878540039 0.73180091381073 -0.025912316516041756 -7.853590000550525e-10 7.112500366446284e-09 1.3027200151949359e-10 -2.221669912338257 -0.733487069606781 0.208919957280159 -2.0321699480147914e-16 0.0 -3.8825099822884138e-19 -51.82320022583008 -57.22870635986328 -62.334197998046875 -3.7087197303771973 76.43930053710938 3.6836400032043457 -7.15002965927124 -8.23497200012207 -19.83839988708496 2.0321699480147914e-16 0.0 3.8825099822884138e-19 8.446989059448242 -2.2382194995880127 13.47249984741211 1.111199975013733 69.83040618896484 -4.322090148925781 6.100550174713135 -13.314099311828613 29.545398712158203
